<?xml version="1.0" encoding="UTF-8" standalone="no"?>
<!-- Created with Inkscape (http://www.inkscape.org/) -->

<svg
   xmlns:dc="http://purl.org/dc/elements/1.1/"
   xmlns:cc="http://creativecommons.org/ns#"
   xmlns:rdf="http://www.w3.org/1999/02/22-rdf-syntax-ns#"
   xmlns:svg="http://www.w3.org/2000/svg"
   xmlns="http://www.w3.org/2000/svg"
   xmlns:sodipodi="http://sodipodi.sourceforge.net/DTD/sodipodi-0.dtd"
   xmlns:inkscape="http://www.inkscape.org/namespaces/inkscape"
   width="210mm"
   height="297mm"
   viewBox="0 0 210 297"
   version="1.1"
   id="svg8"
   inkscape:export-filename="C:\Users\Fathi\bitmap.png"
   inkscape:export-xdpi="7653.1499"
   inkscape:export-ydpi="7653.1499"
   inkscape:version="0.92.2 (5c3e80d, 2017-08-06)"
   sodipodi:docname="drawing.svg">
  <defs
     id="defs2" />
  <sodipodi:namedview
     id="base"
     pagecolor="#ffffff"
     bordercolor="#666666"
     borderopacity="1.0"
     inkscape:pageopacity="0.0"
     inkscape:pageshadow="2"
     inkscape:zoom="0.24122665"
     inkscape:cx="354.52794"
     inkscape:cy="45.362862"
     inkscape:document-units="mm"
     inkscape:current-layer="layer1"
     showgrid="false"
     inkscape:snap-global="false"
     inkscape:window-width="1366"
     inkscape:window-height="715"
     inkscape:window-x="-8"
     inkscape:window-y="-8"
     inkscape:window-maximized="1" />
  <metadata
     id="metadata5">
    <rdf:RDF>
      <cc:Work
         rdf:about="">
        <dc:format>image/svg+xml</dc:format>
        <dc:type
           rdf:resource="http://purl.org/dc/dcmitype/StillImage" />
        <dc:title></dc:title>
      </cc:Work>
    </rdf:RDF>
  </metadata>
  <g
     inkscape:label="Layer 1"
     inkscape:groupmode="layer"
     id="layer1">
    <rect
       style="opacity:0.98299997;fill:#ffb380;fill-opacity:1;stroke:none;stroke-width:3.22791648;stroke-miterlimit:4;stroke-dasharray:none;stroke-opacity:1"
       id="rect815"
       width="334.8869"
       height="276.67856"
       x="-59.720242"
       y="13.366661"
       ry="0.82682288" />
    <ellipse
       style="opacity:0.47600002;fill:#502d16;fill-opacity:1;stroke:none;stroke-width:3.22791648;stroke-miterlimit:4;stroke-dasharray:none;stroke-opacity:1"
       id="path853"
       cx="197.68155"
       cy="59.630947"
       rx="7.1815472"
       ry="7.5595236" />
    <text
       xml:space="preserve"
       style="font-style:normal;font-variant:normal;font-weight:normal;font-stretch:normal;font-size:83.0379715px;line-height:1.25;font-family:'Bell MT';-inkscape-font-specification:'Bell MT';letter-spacing:0px;word-spacing:0px;opacity:0.5270004;fill:#000000;fill-opacity:1;stroke:none;stroke-width:2.07594919"
       x="-5.9983459"
       y="106.65384"
       id="text819"
       transform="scale(0.96517168,1.0360851)"><tspan
         sodipodi:role="line"
         id="tspan817"
         x="-5.9983459"
         y="106.65384"
         style="font-style:normal;font-variant:normal;font-weight:normal;font-stretch:normal;font-family:'Indie Flower';-inkscape-font-specification:'Indie Flower';stroke-width:2.07594919">ALONE</tspan></text>
    <ellipse
       style="opacity:0.98299997;fill:#ffb380;fill-opacity:1;stroke:none;stroke-width:3.22791648;stroke-miterlimit:4;stroke-dasharray:none;stroke-opacity:1"
       id="path821"
       cx="251.35417"
       cy="123.13096"
       rx="2.6458333"
       ry="0.75595242" />
    <ellipse
       style="opacity:0.36500005;fill:#483737;fill-opacity:1;stroke:none;stroke-width:3.72148442;stroke-miterlimit:4;stroke-dasharray:none;stroke-opacity:1"
       id="path823"
       cx="100.39048"
       cy="184.96788"
       rx="40.443451"
       ry="4.5357132" />
    <text
       xml:space="preserve"
       style="font-style:normal;font-variant:normal;font-weight:normal;font-stretch:normal;font-size:74.23960114px;line-height:1.25;font-family:'Bell MT';-inkscape-font-specification:'Bell MT';letter-spacing:0px;word-spacing:0px;fill:#6f916f;fill-opacity:1;stroke:none;stroke-width:1.85598993"
       x="83.766388"
       y="169.6185"
       id="text831"
       transform="scale(0.95497148,1.0471517)"
       inkscape:transform-center-x="6.0365298"
       inkscape:transform-center-y="-5.9610947"><tspan
         sodipodi:role="line"
         id="tspan829"
         x="83.766388"
         y="169.6185"
         style="font-style:normal;font-variant:normal;font-weight:normal;font-stretch:normal;font-family:Calibri;-inkscape-font-specification:Calibri;fill:#6f916f;stroke-width:1.85598993">&amp;</tspan></text>
    <rect
       style="opacity:0.47600002;fill:#502d16;fill-opacity:1;stroke:none;stroke-width:2.98847079;stroke-miterlimit:4;stroke-dasharray:none;stroke-opacity:1"
       id="rect851"
       width="13.607141"
       height="13.607151"
       x="-37.04166"
       y="197.74344"
       ry="0.11811762"
       transform="scale(-1,1)" />
    <text
       xml:space="preserve"
       style="font-style:normal;font-variant:normal;font-weight:normal;font-stretch:normal;font-size:84.15306091px;line-height:1.25;font-family:'Bell MT';-inkscape-font-specification:'Bell MT';letter-spacing:0px;word-spacing:0px;opacity:0.47600002;fill:#000000;fill-opacity:1;stroke:none;stroke-width:2.10382652"
       x="-10.873893"
       y="256.12915"
       id="text819-5"
       transform="scale(1.0196125,0.98076475)"><tspan
         sodipodi:role="line"
         id="tspan817-2"
         x="-10.873893"
         y="256.12915"
         style="font-style:normal;font-variant:normal;font-weight:normal;font-stretch:normal;font-family:'OCR-A BT';-inkscape-font-specification:'OCR-A BT';stroke-width:2.10382652">CODE</tspan></text>
    <rect
       style="opacity:0.98299997;fill:#918a6f;fill-opacity:1;stroke:none;stroke-width:3.22791672;stroke-miterlimit:4;stroke-dasharray:none;stroke-opacity:1"
       id="rect815-6"
       width="334.8869"
       height="276.67856"
       x="-59.720242"
       y="290.04523"
       ry="0.82682294" />
    <text
       xml:space="preserve"
       style="font-style:normal;font-variant:normal;font-weight:normal;font-stretch:normal;font-size:83.0379715px;line-height:1.25;font-family:'Bell MT';-inkscape-font-specification:'Bell MT';letter-spacing:0px;word-spacing:0px;opacity:0.5270004;fill:#d4ff2a;fill-opacity:1;stroke:none;stroke-width:2.07594919"
       x="-13.473705"
       y="368.31778"
       id="text819-7"
       transform="scale(0.96517169,1.0360851)"><tspan
         sodipodi:role="line"
         id="tspan817-9"
         x="-13.473705"
         y="368.31778"
         style="font-style:normal;font-variant:normal;font-weight:normal;font-stretch:normal;font-family:Kalam;-inkscape-font-specification:Kalam;fill:#d4ff2a;stroke-width:2.07594919">I want </tspan></text>
    <path
       style="fill:#44aa00;stroke:#fbfbfb;stroke-width:3.46499991;stroke-linecap:butt;stroke-linejoin:miter;stroke-miterlimit:4;stroke-dasharray:none;stroke-opacity:1;opacity:0.659"
       d="m 200.93215,318.54467 c 1.32648,-2.32519 4.2214,-2.25793 6.04762,-3.77979 0.69796,-0.58163 0.94435,-1.55839 1.51191,-2.26785 0.44523,-0.55652 0.94173,-1.08426 1.5119,-1.51191 0.45077,-0.33805 1.17384,-0.30517 1.51191,-0.75594 0.4781,-0.63748 0.31394,-1.60485 0.75595,-2.26785 0.13977,-0.20968 0.57777,0.17817 0.75595,0 0.17818,-0.17819 -0.17818,-0.57779 0,-0.75596 0.17818,-0.17817 0.57777,0.17817 0.75595,0 0.17818,-0.17817 -0.17818,-0.57777 0,-0.75594 0.17818,-0.1782 0.50397,0 0.75596,0 0.75595,-1.25992 1.68906,-2.42928 2.26785,-3.77976 0.19853,-0.46324 -0.27955,-1.0926 0,-1.51191 0.31255,-0.46884 1.04309,-0.44342 1.51191,-0.75597 1.49758,0.0755 0.35753,-1.11347 0.75595,-1.51191 0.17818,-0.17817 0.57777,-0.17817 0.75595,0 0.17818,0.1782 0,0.50398 0,0.75597"
       id="path942"
       inkscape:connector-curvature="0" />
    <path
       style="fill:#44aa00;stroke:#fbfbfb;stroke-width:3.46499991;stroke-linecap:butt;stroke-linejoin:miter;stroke-miterlimit:4;stroke-dasharray:none;stroke-opacity:1;opacity:0.601"
       d="m 213.85891,332.15179 c 5.09757,-1.69918 4.21976,-1.70709 9.82739,-2.26785 0.7522,-0.0752 1.52658,0.14825 2.26785,0 0.55251,-0.11049 0.97737,-0.57777 1.51191,-0.75594 0.23905,-0.0797 0.50397,0 0.75595,0 0.75595,-0.25199 1.55514,-0.3996 2.26786,-0.75597 0.63747,-0.31874 0.83576,-1.28651 1.5119,-1.51191 0.47811,-0.15935 1.01773,0.0989 1.51191,0 0.78137,-0.15626 1.48649,-0.59967 2.26786,-0.75594 0.49418,-0.0988 1.06114,0.22538 1.5119,0 0.22538,-0.11268 -0.17818,-0.57777 0,-0.75596 0.35636,-0.35635 1.15555,0.35636 1.5119,0 0.17818,-0.17817 -0.17818,-0.57777 0,-0.75595 0.15455,-0.15454 1.96813,0.14986 2.26786,0 0.31874,-0.15935 0.43722,-0.59658 0.75595,-0.75594 0.29973,-0.14988 2.11332,0.15455 2.26786,0 0.17818,-0.17819 -0.17818,-0.57779 0,-0.75596 0.17818,-0.17817 0.57777,0.17817 0.75595,0 0.17818,-0.17817 -0.17818,-0.57777 0,-0.75594 0.17818,-0.1782 0.57778,0.17817 0.75595,0 0.17819,-0.1782 -0.17817,-0.57778 0,-0.75597 0.17819,-0.17817 0.50397,0 0.75596,0 0.25198,0 0.50397,0 0.75595,0"
       id="path944"
       inkscape:connector-curvature="0" />
    <path
       style="fill:#44aa00;stroke:#fbfbfb;stroke-width:3.46499991;stroke-linecap:butt;stroke-linejoin:miter;stroke-miterlimit:4;stroke-dasharray:none;stroke-opacity:1;opacity:0.564"
       d="m 216.88269,346.96845 c 1.30103,1.11935 3.12925,1.33022 4.53572,2.26788 0.29651,0.19767 0.43721,0.59658 0.75595,0.75594 0.45076,0.22537 1.06114,-0.22537 1.5119,0 0.31874,0.15936 0.43722,0.59658 0.75595,0.75594 0.45077,0.2254 1.28653,-0.45075 1.51191,0 0.22538,0.45077 -0.35636,1.15557 0,1.51191 0.35636,0.35636 1.00794,0 1.51191,0 0.75595,0 1.53447,-0.18333 2.26785,0 0.34572,0.0864 0.50397,0.50398 0.75596,0.75596 0.50396,0.25199 0.95939,0.64546 1.5119,0.75595 0.74127,0.14824 1.5119,0 2.26786,0 0.75595,0.25198 1.4948,0.56269 2.26785,0.75596 0.75596,0.18897 1.51191,-0.37798 2.26786,0 0.22538,0.11269 -0.17818,0.57777 0,0.75594 0.35636,0.35637 1.06114,-0.22537 1.5119,0 0.31874,0.15936 0.43722,0.59659 0.75596,0.75595 0.22538,0.11271 0.5169,-0.0797 0.75595,0 0.53454,0.17819 0.97737,0.57779 1.51191,0.75596 0.4461,0.1487 3.35739,0 3.77976,0 0.25198,0 0.75595,-0.25199 0.75595,0 0,1.11231 -2.50718,-1.75122 0,0.75594"
       id="path946"
       inkscape:connector-curvature="0" />
    <text
       xml:space="preserve"
       style="font-style:normal;font-variant:normal;font-weight:normal;font-stretch:normal;font-size:315.70089722px;line-height:1.25;font-family:'Bell MT';-inkscape-font-specification:'Bell MT';letter-spacing:0px;word-spacing:0px;opacity:0.75;fill:#eef4d7;fill-opacity:1;stroke:none;stroke-width:7.89252234"
       x="10.844723"
       y="514.2348"
       id="text950"
       transform="scale(0.96065696,1.0409543)"><tspan
         sodipodi:role="line"
         id="tspan948"
         x="10.844723"
         y="514.2348"
         style="font-style:normal;font-variant:normal;font-weight:normal;font-stretch:normal;font-family:'Blackadder ITC';-inkscape-font-specification:'Blackadder ITC';fill:#eef4d7;stroke-width:7.89252234">to</tspan></text>
    <rect
       style="opacity:0.98299997;fill:#ddff55;fill-opacity:1;stroke:none;stroke-width:3.22791696;stroke-miterlimit:4;stroke-dasharray:none;stroke-opacity:1"
       id="rect815-6-4"
       width="334.8869"
       height="276.67856"
       x="-59.720245"
       y="566.72375"
       ry="0.82682294" />
    <text
       xml:space="preserve"
       style="font-style:normal;font-variant:normal;font-weight:normal;font-stretch:normal;font-size:79.58802795px;line-height:1.25;font-family:'Bell MT';-inkscape-font-specification:'Bell MT';letter-spacing:0px;word-spacing:0px;fill:#483e37;fill-opacity:1;stroke:none;stroke-width:1.98970079;opacity:0.72;"
       x="2.1441181"
       y="591.79034"
       id="text971"
       transform="scale(0.91791221,1.0894288)"><tspan
         sodipodi:role="line"
         id="tspan969"
         x="2.1441181"
         y="591.79034"
         style="font-style:normal;font-variant:normal;font-weight:normal;font-stretch:normal;font-family:'Brush Script Std';-inkscape-font-specification:'Brush Script Std';stroke-width:1.98970079;fill:#483e37;">make a</tspan></text>
    <text
       xml:space="preserve"
       style="font-style:normal;font-variant:normal;font-weight:normal;font-stretch:normal;font-size:60.59320831px;line-height:1.25;font-family:'Bell MT';-inkscape-font-specification:'Bell MT';letter-spacing:0px;word-spacing:0px;fill:#668000;fill-opacity:1;stroke:none;stroke-width:1.51483011;opacity:0.774;"
       x="6.1334801"
       y="501.47565"
       id="text979"
       transform="scale(0.69091865,1.4473484)"><tspan
         sodipodi:role="line"
         id="tspan977"
         x="6.1334801"
         y="501.47565"
         style="font-style:normal;font-variant:normal;font-weight:normal;font-stretch:normal;font-family:'Berlin Sans FB Demi';-inkscape-font-specification:'Berlin Sans FB Demi';stroke-width:1.51483011;fill:#668000;">Responsive </tspan></text>
    <text
       xml:space="preserve"
       style="font-style:normal;font-variant:normal;font-weight:normal;font-stretch:normal;font-size:89.24827576px;line-height:1.25;font-family:'Bell MT';-inkscape-font-specification:'Bell MT';letter-spacing:0px;word-spacing:0px;fill:#17280b;fill-opacity:1;stroke:none;stroke-width:2.23120666;opacity:0.753;"
       x="62.410183"
       y="667.03546"
       id="text983"
       transform="scale(0.81035794,1.2340226)"><tspan
         sodipodi:role="line"
         id="tspan981"
         x="62.410183"
         y="667.03546"
         style="font-style:normal;font-variant:normal;font-weight:normal;font-stretch:normal;font-family:Chiller;-inkscape-font-specification:Chiller;stroke-width:2.23120666;fill:#17280b;">WEB</tspan></text>
    <rect
       style="opacity:0.98299997;fill:#c87137;fill-opacity:1;stroke:none;stroke-width:3.22791696;stroke-miterlimit:4;stroke-dasharray:none;stroke-opacity:1"
       id="rect815-6-3"
       width="334.8869"
       height="276.67856"
       x="-59.720245"
       y="843.40234"
       ry="0.82682294" />
    <text
       xml:space="preserve"
       style="font-style:normal;font-variant:normal;font-weight:normal;font-stretch:normal;font-size:102.53531647px;line-height:1.25;font-family:'Bell MT';-inkscape-font-specification:'Bell MT';letter-spacing:0px;word-spacing:0px;fill:#ffcc00;fill-opacity:1;stroke:none;stroke-width:2.56338286;opacity:0.564;"
       x="36.649841"
       y="920.48413"
       id="text993"
       transform="scale(0.98104485,1.0193214)"><tspan
         sodipodi:role="line"
         id="tspan991"
         x="36.649841"
         y="920.48413"
         style="font-style:normal;font-variant:normal;font-weight:normal;font-stretch:normal;font-family:'Exotc350 Bd BT';-inkscape-font-specification:'Exotc350 Bd BT';stroke-width:2.56338286;fill:#ffcc00;">and</tspan></text>
    <text
       xml:space="preserve"
       style="font-style:normal;font-variant:normal;font-weight:normal;font-stretch:normal;font-size:121.88881683px;line-height:1.25;font-family:'Bell MT';-inkscape-font-specification:'Bell MT';letter-spacing:0px;word-spacing:0px;fill:#241f1c;fill-opacity:1;stroke:none;stroke-width:3.04722023;opacity:0.53;"
       x="-21.925789"
       y="784.5191"
       id="text979-5"
       transform="scale(0.72804551,1.3735405)"
       inkscape:transform-center-x="88.347105"
       inkscape:transform-center-y="-6.2815522"><tspan
         sodipodi:role="line"
         id="tspan977-8"
         x="-21.925789"
         y="784.5191"
         style="font-style:normal;font-variant:normal;font-weight:normal;font-stretch:normal;font-family:'Brush Script Std';-inkscape-font-specification:'Brush Script Std';fill:#241f1c;stroke-width:3.04722023;">Marry</tspan></text>
    <path
       style="fill:none;stroke:#e97161;stroke-width:2.03111053;stroke-linecap:butt;stroke-linejoin:miter;stroke-miterlimit:4;stroke-dasharray:none;stroke-opacity:1"
       d="m 244.29746,1037.0182 c 3.11785,-2.9043 3.65928,-2.8995 5.37498,-5.563 0.22902,-0.3556 0.3503,-0.7676 0.59722,-1.1126 0.15616,-0.2182 0.44105,-0.3381 0.59722,-0.5563 0.24692,-0.345 0.28245,-0.8194 0.59722,-1.1126 0.14076,-0.1311 0.39814,0 0.59722,0 0.19907,0 0.59722,-0.1854 0.59722,0 0,0.1854 -0.7963,0 -0.59722,0 0.39814,0 0.83832,-0.1659 1.19443,0 0.17806,0.083 0,0.3709 0,0.5563 0,1.1126 0,2.2252 0,3.3378 0,1.6689 0,3.3378 0,5.0067 0,0.1854 0,0.3708 0,0.5563 0,0.1854 0.14077,0.4251 0,0.5563 -0.28153,0.2622 -0.9129,-0.2623 -1.19443,0 -0.14077,0.1311 0.089,0.3904 0,0.5563 -0.12591,0.2345 -0.47132,0.3217 -0.59722,0.5563 -0.162,0.3018 0.16341,2.073 0,2.2252 -0.14077,0.1311 -0.45646,-0.1311 -0.59722,0 -0.29861,0.2781 0.29861,1.3907 0,1.6688 -0.14077,0.1312 -0.45645,-0.1311 -0.59722,0 -0.0192,0.018 0,1.534 0,1.6689 0,0.135 0.0192,1.6511 0,1.669 -0.14077,0.1311 -0.45646,-0.1311 -0.59722,0 -0.21453,0.1998 0.19318,1.8653 0,2.2252 -0.089,0.1658 -0.45645,-0.1311 -0.59722,0 -0.28154,0.2622 0.17805,0.7808 0,1.1125 -0.25181,0.4692 -0.94263,0.6436 -1.19444,1.1127 -0.0785,0.1462 0,1.9342 0,2.2252 0,0.5562 0.18886,1.1411 0,1.6689 -0.063,0.1759 -0.41916,-0.083 -0.59722,0 -0.25181,0.1172 -0.34541,0.4389 -0.59722,0.5563 -0.18176,0.085 -1.52269,0 -1.79166,0 -0.19907,0 -0.39814,0 -0.59722,0 -0.39814,0 -0.9129,0.2622 -1.19443,0 -0.28154,-0.2623 0.1259,-0.7608 0,-1.1127 -0.089,-0.2487 -0.47132,-0.3217 -0.59723,-0.5563 -0.089,-0.1658 0.14077,-0.4251 0,-0.5562 -0.28152,-0.2623 -0.9129,0.2622 -1.19444,0 -0.29861,-0.2782 0.29862,-1.3908 0,-1.669 -0.14076,-0.1311 -0.45645,0.1312 -0.59721,0 -0.14077,-0.1311 0.089,-0.3904 0,-0.5562 -0.12591,-0.2346 -0.47132,-0.3218 -0.59722,-0.5563 -0.089,-0.1659 0.14076,-0.4252 0,-0.5564 -0.14077,-0.1311 -0.45646,0.1312 -0.59722,0 -0.14077,-0.1311 0.089,-0.3904 0,-0.5563 -0.12591,-0.2345 -0.47132,-0.3217 -0.59722,-0.5562 -0.17806,-0.3317 0.28153,-0.8504 0,-1.1126 -0.14077,-0.1312 -0.45645,0.1311 -0.59722,0 -0.14077,-0.1312 0,-0.3709 0,-0.5564 0,-0.3708 0.17805,-0.7808 0,-1.1125 -0.089,-0.1659 -0.41916,0.083 -0.59722,0 -0.25181,-0.1173 -0.44105,-0.3381 -0.59722,-0.5563 -0.24692,-0.3451 -0.39814,-0.7418 -0.59722,-1.1126 0,-0.1855 0.089,-0.3905 0,-0.5563 -0.25181,-0.4691 -0.94263,-0.6435 -1.19444,-1.1126 -0.089,-0.1659 0.14077,-0.4252 0,-0.5563 -0.14077,-0.1311 -0.45645,0.1311 -0.59722,0 -0.28153,-0.2623 0.28153,-0.8504 0,-1.1126 -0.28153,-0.2623 -0.91291,0.2622 -1.19444,0 -0.14076,-0.1312 0.14077,-0.4252 0,-0.5563 -0.14076,-0.1312 -0.45645,0.1311 -0.59722,0 -0.14076,-0.1312 0.14077,-0.4252 0,-0.5563 -0.14076,-0.1311 -0.39815,0 -0.59721,0 0,-0.1855 0.14076,-0.4252 0,-0.5563 -0.14077,-0.1311 -0.39815,0 -0.59723,0 -0.39814,0 -0.83832,0.1658 -1.19444,0 -0.2479,-0.1155 0.20847,-1.4747 0,-1.6689 -0.14076,-0.1311 -0.45645,0.1311 -0.59721,0 -0.14077,-0.1311 0.089,-0.3905 0,-0.5563 -0.12591,-0.2346 -0.47132,-0.3218 -0.59723,-0.5563 -0.10798,-0.2012 0,-2.3946 0,-2.7815 0,-0.1855 -0.14076,-0.4252 0,-0.5563 0.14077,-0.1311 0.5082,0.1658 0.59723,0 0.17805,-0.3317 0,-0.7418 0,-1.1126 0,-0.1854 -0.14077,-0.4252 0,-0.5563 0.14076,-0.1311 0.45645,0.1311 0.59721,0 0.14077,-0.1311 -0.14076,-0.4252 0,-0.5563 0.14077,-0.1311 0.39815,0 0.59723,0 0.14191,0 2.25502,-0.062 2.38887,0 0.50362,0.2346 0.69082,0.8781 1.19444,1.1126 0.35611,0.1659 0.91291,-0.2622 1.19444,0 0.14077,0.1311 -0.17806,0.4733 0,0.5563 0.35611,0.1658 0.86316,-0.2057 1.19444,0 0.37038,0.23 0.28246,0.8194 0.59722,1.1126 0.29861,0.2781 1.49305,-0.2782 1.79166,0 0.14076,0.1311 -0.14077,0.4252 0,0.5563 0.14076,0.1311 0.41916,-0.083 0.59722,0 1.43553,0.6686 0.84807,4.0786 4.18053,2.2252 z"
       id="path1025"
       inkscape:connector-curvature="0" />
    <path
       style="fill:none;stroke:#e961c1;stroke-width:2.93253112;stroke-linecap:butt;stroke-linejoin:miter;stroke-miterlimit:4;stroke-dasharray:none;stroke-opacity:1"
       d="m -24.840345,993.32882 c 3.854697,-4.89682 4.524081,-4.88873 6.645251,-9.37977 0.283147,-0.59951 0.433084,-1.29426 0.738358,-1.87596 0.193075,-0.36791 0.545289,-0.57007 0.738364,-0.93799 0.305274,-0.58169 0.349206,-1.38159 0.738358,-1.87593 0.17403,-0.22109 0.492242,0 0.738364,0 0.246114,0 0.738357,-0.31265 0.738357,0 0,0.31265 -0.984479,0 -0.738357,0 0.492236,0 1.036441,-0.27967 1.476715,0 0.220136,0.13981 0,0.6253 0,0.93798 0,1.87594 0,3.7519 0,5.62784 0,2.81395 0,5.62787 0,8.4418 0,0.31266 0,0.62532 0,0.93798 0,0.31265 0.174037,0.71689 0,0.93798 -0.348061,0.44217 -1.128654,-0.44217 -1.476715,0 -0.174038,0.22108 0.110065,0.65831 0,0.93798 -0.155666,0.39548 -0.582705,0.54249 -0.738364,0.93798 -0.200278,0.50882 0.202028,3.49529 0,3.75189 -0.174031,0.2211 -0.564327,-0.2211 -0.738358,0 -0.369185,0.469 0.369179,2.345 0,2.8139 -0.174037,0.2211 -0.564327,-0.221 -0.738364,0 -0.02376,0.03 0,2.5865 0,2.814 0,0.2274 0.02376,2.7838 0,2.8139 -0.174031,0.2211 -0.564327,-0.2211 -0.738358,0 -0.265233,0.3369 0.238838,3.145 0,3.7519 -0.110071,0.2796 -0.564327,-0.2211 -0.738364,0 -0.348068,0.4422 0.220137,1.3167 0,1.876 -0.311319,0.7909 -1.165403,1.0849 -1.476722,1.876 -0.09707,0.2466 0,3.2613 0,3.7519 0,0.9379 0.233493,1.924 7e-6,2.8139 -0.07783,0.2966 -0.518227,-0.1399 -0.738364,0 -0.311319,0.1977 -0.427039,0.7402 -0.738357,0.938 -0.224715,0.1427 -1.882556,0 -2.215086,0 -0.246122,0 -0.492236,0 -0.738358,0 -0.492243,0 -1.128654,0.4421 -1.476722,0 -0.348067,-0.4422 0.15566,-1.2828 0,-1.876 -0.110071,-0.4195 -0.582704,-0.5425 -0.738364,-0.938 -0.110065,-0.2796 0.174037,-0.7169 0,-0.9379 -0.348061,-0.4422 -1.128654,0.4421 -1.476721,0 -0.369179,-0.469 0.369185,-2.345 0,-2.814 -0.174031,-0.221 -0.564327,0.2211 -0.738358,0 -0.17403,-0.221 0.110065,-0.6583 0,-0.9379 -0.155659,-0.3956 -0.582698,-0.5426 -0.738357,-0.9381 -0.110072,-0.2796 0.17403,-0.7169 0,-0.9379 -0.174038,-0.2211 -0.564334,0.221 -0.738365,0 -0.17403,-0.2211 0.110072,-0.6584 0,-0.938 -0.155659,-0.3955 -0.582698,-0.5425 -0.738357,-0.938 -0.220137,-0.5593 0.348061,-1.4338 0,-1.8759 -0.174037,-0.2211 -0.564327,0.221 -0.738364,0 -0.174031,-0.2211 0,-0.6254 0,-0.938 0,-0.6254 0.220136,-1.3167 0,-1.876 -0.110065,-0.2796 -0.518221,0.1398 -0.738358,0 -0.311325,-0.1977 -0.545289,-0.57 -0.738364,-0.9379 -0.305274,-0.5817 -0.492236,-1.2507 -0.738358,-1.876 0,-0.3127 0.110065,-0.6583 0,-0.938 -0.311318,-0.7909 -1.165402,-1.085 -1.476721,-1.8759 -0.110072,-0.2797 0.17403,-0.7169 0,-0.938 -0.174037,-0.2211 -0.564327,0.2211 -0.738364,0 -0.348061,-0.4422 0.348067,-1.4338 0,-1.876 -0.348061,-0.4421 -1.128654,0.4422 -1.476722,0 -0.174031,-0.221 0.174037,-0.7168 0,-0.93793 -0.174031,-0.22109 -0.564327,0.22113 -0.738358,0 -0.17403,-0.22109 0.174031,-0.71691 0,-0.93799 -0.17403,-0.22108 -0.492242,0 -0.738357,0 0,-0.31266 0.17403,-0.71689 0,-0.93797 -0.174037,-0.22109 -0.492243,0 -0.738364,0 -0.492243,0 -1.036449,0.27965 -1.476722,0 -0.306485,-0.19468 0.257734,-2.48652 0,-2.81393 -0.174031,-0.22108 -0.564327,0.22108 -0.738357,0 -0.174038,-0.22108 0.110065,-0.65833 0,-0.93798 -0.15566,-0.39548 -0.582705,-0.54249 -0.738365,-0.93798 -0.133505,-0.3392 0,-4.03748 0,-4.68988 0,-0.31266 -0.17403,-0.71689 0,-0.93797 0.174038,-0.22109 0.628293,0.27965 0.738365,0 0.220136,-0.55931 0,-1.25065 0,-1.87596 0,-0.31266 -0.174038,-0.71689 0,-0.93798 0.17403,-0.22108 0.564326,0.22109 0.738357,0 0.174037,-0.22108 -0.174031,-0.71689 0,-0.93797 0.174037,-0.22109 0.492243,0 0.738364,0 0.175451,0 2.787949,-0.10512 2.953437,0 0.622644,0.39548 0.854084,1.48046 1.476722,1.87595 0.440273,0.27965 1.128653,-0.44217 1.476721,0 0.174038,0.22108 -0.220136,0.79815 0,0.93797 0.440274,0.27966 1.067152,-0.34685 1.476722,0 0.457911,0.38781 0.349212,1.3816 0.738364,1.87596 0.369179,0.46899 1.845901,-0.46899 2.215079,0 0.174031,0.22108 -0.17403,0.71689 0,0.93797 0.174031,0.22109 0.518228,-0.13982 0.738365,0 1.774792,1.12731 1.048491,6.87699 5.168515,3.75191 z"
       id="path1025-4"
       inkscape:connector-curvature="0" />
  </g>
</svg>
