<?xml version="1.0" encoding="UTF-8" standalone="no"?>
<!-- Created with Inkscape (http://www.inkscape.org/) -->

<svg
   xmlns:dc="http://purl.org/dc/elements/1.1/"
   xmlns:cc="http://creativecommons.org/ns#"
   xmlns:rdf="http://www.w3.org/1999/02/22-rdf-syntax-ns#"
   xmlns:svg="http://www.w3.org/2000/svg"
   xmlns="http://www.w3.org/2000/svg"
   xmlns:sodipodi="http://sodipodi.sourceforge.net/DTD/sodipodi-0.dtd"
   xmlns:inkscape="http://www.inkscape.org/namespaces/inkscape"
   width="210mm"
   height="297mm"
   viewBox="0 0 210 297"
   version="1.1"
   id="svg8"
   inkscape:export-filename="E:\hujan.png"
   inkscape:export-xdpi="96"
   inkscape:export-ydpi="96"
   sodipodi:docname="hujan.svg"
   inkscape:version="0.92.2 (5c3e80d, 2017-08-06)">
  <defs
     id="defs2" />
  <sodipodi:namedview
     id="base"
     pagecolor="#ffffff"
     bordercolor="#666666"
     borderopacity="1.0"
     inkscape:pageopacity="0.0"
     inkscape:pageshadow="2"
     inkscape:zoom="0.7"
     inkscape:cx="4370.1889"
     inkscape:cy="435.34189"
     inkscape:document-units="mm"
     inkscape:current-layer="layer1"
     showgrid="false"
     inkscape:window-width="1366"
     inkscape:window-height="715"
     inkscape:window-x="-8"
     inkscape:window-y="-8"
     inkscape:window-maximized="1"
     showguides="true" />
  <metadata
     id="metadata5">
    <rdf:RDF>
      <cc:Work
         rdf:about="">
        <dc:format>image/svg+xml</dc:format>
        <dc:type
           rdf:resource="http://purl.org/dc/dcmitype/StillImage" />
      </cc:Work>
    </rdf:RDF>
  </metadata>
  <g
     inkscape:label="Layer 1"
     inkscape:groupmode="layer"
     id="layer1">
    <rect
       ry="0"
       y="95.583191"
       x="1145.317"
       height="169.33333"
       width="169.33333"
       id="rect906"
       style="opacity:1;fill:#e6e6e6;fill-opacity:1;stroke:none;stroke-width:0.60312134;stroke-miterlimit:4;stroke-dasharray:none;stroke-opacity:1" />
    <path
       style="opacity:1;fill:#008080;fill-opacity:1;stroke:none;stroke-width:0.08222813;stroke-miterlimit:4;stroke-dasharray:none;stroke-opacity:1"
       d="m 1291.7126,258.27682 c -0.4467,2.13009 -2.2607,2.79831 -3.819,1.85261 -1.5583,-0.94569 -2.4595,-3.43911 -2.0129,-5.56922 0.099,-2.05805 0.8778,-0.213 1.022,-0.51325 -0.3848,2.10795 -0.1758,4.03413 1.3442,4.95917 1.2598,0.7646 1.9893,-0.14007 2.6822,-1.58645 0.6194,-0.75811 0.7914,0.81356 0.7835,0.85714 z"
       id="path883"
       inkscape:connector-curvature="0"
       sodipodi:nodetypes="ccccccc" />
    <rect
       style="opacity:1;fill:#4d4d4d;fill-opacity:1;stroke:none;stroke-width:0.11047051;stroke-miterlimit:4;stroke-dasharray:none;stroke-opacity:1"
       id="rect878"
       width="1.044096"
       height="23.562563"
       x="1285.8754"
       y="234.6597"
       ry="0.48333469" />
    <path
       inkscape:connector-curvature="0"
       id="path898"
       d="m 1287.2462,221.32889 a 20.410309,18.468699 0 0 0 -20.4053,18.36751 7.6538656,5.6378139 0 0 1 6.5524,-2.73721 7.6538656,5.6378139 0 0 1 6.551,2.73624 7.6538656,5.6378139 0 0 1 6.3465,-2.48994 7.6538656,5.6378139 0 0 1 6.1999,2.34623 7.6538656,5.6378139 0 0 1 6.1116,-2.2555 7.6538656,5.6378139 0 0 1 1.319,0.0899 7.6538656,5.6378139 0 0 1 1.3409,-0.0899 7.6538656,5.6378139 0 0 1 6.2901,2.43659 h 0.1017 a 20.410309,18.468699 0 0 0 -20.4078,-18.40392 z"
       style="opacity:0.28400005;fill:#1a1a1a;fill-opacity:1;stroke:none;stroke-width:0.10434791;stroke-miterlimit:4;stroke-dasharray:none;stroke-opacity:1" />
    <path
       style="opacity:1;fill:#008080;fill-opacity:1;stroke:none;stroke-width:0.10587425;stroke-miterlimit:4;stroke-dasharray:none;stroke-opacity:1"
       d="m 1286.7891,219.74138 a 21.011776,18.468699 0 0 0 -21.0066,18.36751 7.8794159,5.6378139 0 0 1 6.7455,-2.73721 7.8794159,5.6378139 0 0 1 6.744,2.73624 7.8794159,5.6378139 0 0 1 6.5336,-2.48994 7.8794159,5.6378139 0 0 1 6.3826,2.34623 7.8794159,5.6378139 0 0 1 6.2917,-2.2555 7.8794159,5.6378139 0 0 1 1.3578,0.0899 7.8794159,5.6378139 0 0 1 1.3805,-0.0899 7.8794159,5.6378139 0 0 1 6.4754,2.43659 h 0.1047 a 21.011776,18.468699 0 0 0 -21.0092,-18.40392 z"
       id="path859"
       inkscape:connector-curvature="0" />
    <rect
       style="opacity:1;fill:#008080;fill-opacity:1;stroke:none;stroke-width:0.10864983;stroke-miterlimit:4;stroke-dasharray:none;stroke-opacity:1"
       id="rect847"
       width="2.2326567"
       height="5.9306402"
       x="1285.6149"
       y="212.22324"
       ry="0.82075822" />
    <rect
       style="opacity:1;fill:#008080;fill-opacity:1;stroke:none;stroke-width:0.14262033;stroke-miterlimit:4;stroke-dasharray:none;stroke-opacity:1"
       id="rect849"
       width="2.2326567"
       height="10.218949"
       x="1293.9873"
       y="204.12106"
       ry="1.4142295" />
    <rect
       ry="1.4142295"
       y="200.01524"
       x="1285.6149"
       height="10.218949"
       width="2.2326567"
       id="rect845"
       style="opacity:1;fill:#008080;fill-opacity:1;stroke:none;stroke-width:0.14262033;stroke-miterlimit:4;stroke-dasharray:none;stroke-opacity:1" />
    <rect
       style="opacity:1;fill:#008080;fill-opacity:1;stroke:none;stroke-width:0.14262033;stroke-miterlimit:4;stroke-dasharray:none;stroke-opacity:1"
       id="rect841"
       width="2.2326567"
       height="10.218949"
       x="1277.6888"
       y="204.48602"
       ry="1.4142295" />
    <rect
       style="opacity:0.36100003;fill:#000000;fill-opacity:1;stroke:none;stroke-width:0.17892571;stroke-miterlimit:4;stroke-dasharray:none;stroke-opacity:1"
       id="rect839"
       width="36.727207"
       height="5.2007155"
       x="1269.6514"
       y="202.56998"
       ry="2.6003578" />
    <path
       style="opacity:1;fill:#cccccc;fill-opacity:1;stroke:none;stroke-width:0.25067976;stroke-miterlimit:4;stroke-dasharray:none;stroke-opacity:1"
       d="m 1277.0749,187.58824 c -3.2468,0 -5.8607,2.1364 -5.8607,4.79013 0,0.28056 0.031,0.55485 0.087,0.82194 -0.057,0.22042 -0.087,0.44899 -0.087,0.68359 0,0.24314 0.033,0.47959 0.094,0.70742 -3.0487,0.8537 -5.2289,3.21037 -5.2289,5.99876 0,3.51304 3.4604,6.34119 7.7586,6.34119 h 27.1268 c 4.2982,0 7.7584,-2.82815 7.7584,-6.34119 0,-3.07213 -2.6462,-5.62041 -6.1849,-6.2117 0.03,-0.16125 0.045,-0.32629 0.045,-0.49448 0,-1.81971 -1.7923,-3.28474 -4.0187,-3.28474 h -7.1144 c -0.8609,-1.76737 -2.9678,-3.01092 -5.4443,-3.01092 z"
       id="rect832"
       inkscape:connector-curvature="0" />
    <rect
       ry="0.99575597"
       y="133.95151"
       x="1256.6473"
       height="7.1951399"
       width="1.6981176"
       id="rect932"
       style="opacity:1;fill:#008080;fill-opacity:1;stroke:none;stroke-width:0.10436884;stroke-miterlimit:4;stroke-dasharray:none;stroke-opacity:1" />
    <text
       xml:space="preserve"
       style="font-style:normal;font-variant:normal;font-weight:normal;font-stretch:normal;font-size:8.77916431px;line-height:1.25;font-family:'Berlin Sans FB';-inkscape-font-specification:'Berlin Sans FB';letter-spacing:0px;word-spacing:0px;fill:#4d4d4d;fill-opacity:1;stroke:none;stroke-width:0.21947911"
       x="1374.7715"
       y="102.31104"
       id="text902"
       transform="scale(0.89469062,1.1177048)"><tspan
         sodipodi:role="line"
         id="tspan900"
         x="1374.7715"
         y="102.31104"
         style="font-style:normal;font-variant:normal;font-weight:normal;font-stretch:normal;font-family:'Berlin Sans FB';-inkscape-font-specification:'Berlin Sans FB';text-align:center;text-anchor:middle;fill:#4d4d4d;stroke-width:0.21947911">HUJAN BUKANLAH</tspan><tspan
         sodipodi:role="line"
         x="1374.7715"
         y="113.285"
         style="font-style:normal;font-variant:normal;font-weight:normal;font-stretch:normal;font-family:'Berlin Sans FB';-inkscape-font-specification:'Berlin Sans FB';text-align:center;text-anchor:middle;fill:#4d4d4d;stroke-width:0.21947911"
         id="tspan904">MENGINGATKAN AKAN KENANGAN</tspan></text>
    <rect
       style="opacity:1;fill:#008080;fill-opacity:1;stroke:none;stroke-width:0.08396453;stroke-miterlimit:4;stroke-dasharray:none;stroke-opacity:1"
       id="rect941"
       width="1.4308481"
       height="5.5266719"
       x="1246.5624"
       y="135.09082"
       ry="0.76485199" />
    <rect
       style="opacity:1;fill:#008080;fill-opacity:1;stroke:none;stroke-width:0.06158224;stroke-miterlimit:4;stroke-dasharray:none;stroke-opacity:1"
       id="rect941-7"
       width="1.1635786"
       height="3.6557851"
       x="1268.1639"
       y="134.68855"
       ry="0.5059346" />
    <rect
       style="opacity:1;fill:#008080;fill-opacity:1;stroke:none;stroke-width:0.09625261;stroke-miterlimit:4;stroke-dasharray:none;stroke-opacity:1"
       id="rect994"
       width="1.4442791"
       height="7.1951399"
       x="-1236.6719"
       y="134.87343"
       ry="0.99575597"
       transform="scale(-1,1)" />
    <rect
       ry="0.76485199"
       y="134.21034"
       x="-1225.4047"
       height="5.5266719"
       width="0.90974003"
       id="rect996"
       style="opacity:1;fill:#008080;fill-opacity:1;stroke:none;stroke-width:0.06695111;stroke-miterlimit:4;stroke-dasharray:none;stroke-opacity:1"
       transform="scale(-1,1)" />
    <rect
       ry="0.5059346"
       y="134.62514"
       x="-1217.9647"
       height="3.6557851"
       width="1.0987282"
       id="rect998"
       style="opacity:1;fill:#008080;fill-opacity:1;stroke:none;stroke-width:0.05984154;stroke-miterlimit:4;stroke-dasharray:none;stroke-opacity:1"
       transform="scale(-1,1)" />
    <rect
       transform="scale(-1,1)"
       ry="0.99575597"
       y="134.40096"
       x="-1210.308"
       height="7.1951399"
       width="1.4442791"
       id="rect1000"
       style="opacity:1;fill:#008080;fill-opacity:1;stroke:none;stroke-width:0.09625261;stroke-miterlimit:4;stroke-dasharray:none;stroke-opacity:1" />
    <rect
       style="opacity:1;fill:#008080;fill-opacity:1;stroke:none;stroke-width:0.08265064;stroke-miterlimit:4;stroke-dasharray:none;stroke-opacity:1"
       id="rect1002"
       width="1.4442791"
       height="5.3052588"
       x="-1189.1414"
       y="134.49545"
       ry="0.73420995"
       transform="scale(-1,1)" />
    <rect
       transform="scale(-1,1)"
       style="opacity:1;fill:#008080;fill-opacity:1;stroke:none;stroke-width:0.05984154;stroke-miterlimit:4;stroke-dasharray:none;stroke-opacity:1"
       id="rect1004"
       width="1.0987282"
       height="3.6557851"
       x="-1198.688"
       y="135.38109"
       ry="0.5059346" />
    <rect
       transform="matrix(-0.73302276,0.68020411,-0.99999248,0.00387688,0,0)"
       ry="12.494637"
       y="-1426.144"
       x="205.5575"
       height="90.283829"
       width="2.3431549"
       id="rect1006"
       style="opacity:0.52300002;fill:#1a1a1a;fill-opacity:1;stroke:none;stroke-width:0.43428296;stroke-miterlimit:4;stroke-dasharray:none;stroke-opacity:1" />
    <rect
       style="opacity:1;fill:#cccccc;fill-opacity:1;stroke:none;stroke-width:0.43428296;stroke-miterlimit:4;stroke-dasharray:none;stroke-opacity:1"
       id="rect941-0"
       width="2.3431549"
       height="90.283829"
       x="204.77628"
       y="-1425.5714"
       ry="12.494637"
       transform="matrix(-0.73302276,0.68020411,-0.99999248,0.00387688,0,0)" />
    <rect
       transform="scale(-1,1)"
       style="opacity:1;fill:#008080;fill-opacity:1;stroke:none;stroke-width:0.05788554;stroke-miterlimit:4;stroke-dasharray:none;stroke-opacity:1"
       id="rect1008"
       width="1.0987282"
       height="3.4207015"
       x="-1217.9647"
       y="140.15181"
       ry="0.47340071" />
    <rect
       ry="0.47340071"
       y="140.38805"
       x="-1198.688"
       height="3.4207015"
       width="1.0987282"
       id="rect1010"
       style="opacity:1;fill:#008080;fill-opacity:1;stroke:none;stroke-width:0.05788554;stroke-miterlimit:4;stroke-dasharray:none;stroke-opacity:1"
       transform="scale(-1,1)" />
    <rect
       transform="scale(-1,1)"
       style="opacity:1;fill:#008080;fill-opacity:1;stroke:none;stroke-width:0.05788554;stroke-miterlimit:4;stroke-dasharray:none;stroke-opacity:1"
       id="rect1012"
       width="1.0987282"
       height="3.4207015"
       x="-1247.8931"
       y="142.44421"
       ry="0.47340071" />
    <rect
       ry="0.47340071"
       y="141.2415"
       x="-1269.6755"
       height="3.4207015"
       width="1.0987282"
       id="rect1014"
       style="opacity:1;fill:#008080;fill-opacity:1;stroke:none;stroke-width:0.05788554;stroke-miterlimit:4;stroke-dasharray:none;stroke-opacity:1"
       transform="scale(-1,1)" />
    <text
       transform="scale(0.88414765,1.1310328)"
       id="text1020"
       y="152.09225"
       x="1353.6023"
       style="font-style:normal;font-variant:normal;font-weight:normal;font-stretch:normal;font-size:7.3158884px;line-height:1.25;font-family:'Berlin Sans FB';-inkscape-font-specification:'Berlin Sans FB';letter-spacing:0px;word-spacing:0px;fill:#4d4d4d;fill-opacity:1;stroke:none;stroke-width:0.18289723"
       xml:space="preserve"><tspan
         id="tspan1018"
         style="font-style:normal;font-variant:normal;font-weight:normal;font-stretch:normal;font-family:Consolas;-inkscape-font-specification:Consolas;text-align:center;text-anchor:middle;fill:#4d4d4d;stroke-width:0.18289723"
         y="152.09225"
         x="1355.6171"
         sodipodi:role="line">KARENA HUJAN ADALAH </tspan></text>
    <g
       id="g1050"
       transform="matrix(0.89095347,0,0,0.76242511,126.3725,45.526631)">
      <text
         transform="scale(0.78449216,1.27471)"
         id="text1026"
         y="145.81544"
         x="1530.9375"
         style="font-style:normal;font-variant:normal;font-weight:normal;font-stretch:normal;font-size:7.69784021px;line-height:1.25;font-family:'Berlin Sans FB';-inkscape-font-specification:'Berlin Sans FB';letter-spacing:0px;word-spacing:0px;fill:#4d4d4d;fill-opacity:1;stroke:none;stroke-width:0.19244602"
         xml:space="preserve"><tspan
           id="tspan1024"
           style="font-style:normal;font-variant:normal;font-weight:normal;font-stretch:normal;font-family:'Berlin Sans FB';-inkscape-font-specification:'Berlin Sans FB';text-align:center;text-anchor:middle;fill:#4d4d4d;stroke-width:0.19244602"
           y="145.81544"
           x="1530.9375"
           sodipodi:role="line">KEBERKAHAN</tspan></text>
      <rect
         ry="7.2162771"
         y="175.37083"
         x="1175.986"
         height="14.432554"
         width="48.91032"
         id="rect1038"
         style="opacity:0.52300002;fill:#008080;fill-opacity:1;stroke:none;stroke-width:0.66499996;stroke-miterlimit:4;stroke-dasharray:none;stroke-opacity:1" />
    </g>
    <g
       id="g1045"
       transform="matrix(0.80767874,0,0,0.77374108,224.31387,48.98465)">
      <text
         xml:space="preserve"
         style="font-style:normal;font-variant:normal;font-weight:normal;font-stretch:normal;font-size:7.69784021px;line-height:1.25;font-family:'Berlin Sans FB';-inkscape-font-specification:'Berlin Sans FB';letter-spacing:0px;word-spacing:0px;fill:#4d4d4d;fill-opacity:1;stroke:none;stroke-width:0.19244602"
         x="1528.4943"
         y="166.34045"
         id="text1030"
         transform="scale(0.78449216,1.27471)"><tspan
           id="tspan1032"
           sodipodi:role="line"
           x="1528.4943"
           y="166.34045"
           style="font-style:normal;font-variant:normal;font-weight:normal;font-stretch:normal;font-family:'Berlin Sans FB';-inkscape-font-specification:'Berlin Sans FB';text-align:center;text-anchor:middle;fill:#4d4d4d;stroke-width:0.19244602">WAKTU DOA DIKABULKAN</tspan></text>
      <rect
         style="opacity:0.52300002;fill:#008080;fill-opacity:1;stroke:none;stroke-width:0.86969757;stroke-miterlimit:4;stroke-dasharray:none;stroke-opacity:1"
         id="rect1040"
         width="83.655357"
         height="14.432554"
         x="1158.8807"
         y="201.80362"
         ry="7.2162771" />
    </g>
    <text
       xml:space="preserve"
       style="font-style:normal;font-variant:normal;font-weight:normal;font-stretch:normal;font-size:7.3158884px;line-height:1.25;font-family:'Berlin Sans FB';-inkscape-font-specification:'Berlin Sans FB';letter-spacing:0px;word-spacing:0px;fill:#4d4d4d;fill-opacity:1;stroke:none;stroke-width:0.18289723"
       x="1352.0054"
       y="177.30539"
       id="text1054"
       transform="scale(0.88414765,1.1310328)"><tspan
         sodipodi:role="line"
         x="1352.0054"
         y="177.30539"
         style="font-style:normal;font-variant:normal;font-weight:normal;font-stretch:normal;font-family:'Berlin Sans FB';-inkscape-font-specification:'Berlin Sans FB';text-align:center;text-anchor:middle;fill:#4d4d4d;stroke-width:0.18289723"
         id="tspan1052">&amp;</tspan></text>
    <text
       xml:space="preserve"
       style="font-style:normal;font-variant:normal;font-weight:normal;font-stretch:normal;font-size:9.19526196px;line-height:1.25;font-family:'Blackadder ITC';-inkscape-font-specification:'Blackadder ITC';letter-spacing:0px;word-spacing:0px;fill:#333333;fill-opacity:1;stroke:none;stroke-width:0.22988154;"
       x="1274.6925"
       y="235.27754"
       id="text1062"
       transform="scale(0.90126115,1.1095563)"><tspan
         sodipodi:role="line"
         id="tspan1060"
         x="1274.6925"
         y="235.27754"
         style="font-style:normal;font-variant:normal;font-weight:normal;font-stretch:normal;font-family:'Blackadder ITC';-inkscape-font-specification:'Blackadder ITC';stroke-width:0.22988154;fill:#333333;">move.debac</tspan></text>
  </g>
</svg>
